<?xml version="1.0" encoding="UTF-8" standalone="no"?>
<!-- Created with Inkscape (http://www.inkscape.org/) -->
<svg id="svg2" xmlns:rdf="http://www.w3.org/1999/02/22-rdf-syntax-ns#" xmlns="http://www.w3.org/2000/svg" height="208.55" width="1219.2" version="1.1" xmlns:cc="http://creativecommons.org/ns#" xmlns:xlink="http://www.w3.org/1999/xlink" viewBox="0 0 1219.1925 208.55321" xmlns:dc="http://purl.org/dc/elements/1.1/">
 <defs id="defs4">
  <linearGradient id="linearGradient9515">
   <stop id="stop4550" stop-color="#387eb8" offset="0"/>
   <stop id="stop4552" stop-color="#366994" offset="1"/>
  </linearGradient>
  <linearGradient id="linearGradient11301">
   <stop id="stop11303" stop-color="#ffe052" offset="0"/>
   <stop id="stop11305" stop-color="#ffc331" offset="1"/>
  </linearGradient>
  <linearGradient id="linearGradient11307" y2="168.1" xlink:href="#linearGradient11301" gradientUnits="userSpaceOnUse" x2="147.78" y1="111.92" x1="89.137"/>
  <linearGradient id="linearGradient9521" y2="131.85" xlink:href="#linearGradient9515" gradientUnits="userSpaceOnUse" x2="110.15" y1="77.07" x1="55.549"/>
 </defs>
 <metadata id="metadata7">
  <rdf:RDF>
   <cc:Work rdf:about="">
    <dc:format>image/svg+xml</dc:format>
    <dc:type rdf:resource="http://purl.org/dc/dcmitype/StillImage"/>
    <dc:title/>
   </cc:Work>
  </rdf:RDF>
 </metadata>
 <g id="layer1" transform="translate(-21.562 -693.89)">
  <g id="layer2" transform="matrix(.28489 0 0 .28489 -1.3403 674.73)">
   <g id="g4275" transform="translate(-18.183 -145.46)">
    <g id="g4263" fill="#a4ca39">
     <path id="path4223" d="m197.14 443.79 382.86 0.72l0.71429 282.14c0.0743 29.333-27.779 40.908-42.857 40.714h-301.43c-25.662-3.3746-40.054-21.809-40-42.857z" fill-rule="evenodd"/>
     <path id="path3402" d="m196.81 428.21 383.86 2.612c-0.86282-54.915-19.919-111.09-96.751-155.81 16.686-32.127 26.825-46.769 27.93-55.547 0.87248-6.9313-2.5517-7.9793-8.3316-2.8871-7.8995 6.9597-14.485 26.103-31.944 55.944-56.252-33.195-141.63-16.347-165.67-2.7346-15.737-26.271-20.917-42.607-27.8-50.596-9.0764-10.534-14.749-7.0791-11.784 2.024 4.0609 12.466 19.591 36.865 26.964 55.441-28.461 17.717-85.925 49.428-96.477 151.55z" fill-rule="evenodd"/>
     <rect id="rect4229" rx="40.714" ry="39.503" height="260" width="81.429" y="438.08" x="98.571"/>
     <rect id="rect4251" rx="40.714" ry="39.503" height="260" width="81.429" y="438.08" x="597.14"/>
     <rect id="rect4255" rx="40.714" ry="39.503" height="260" width="81.429" y="642.36" x="275.71"/>
     <rect id="rect4257" rx="40.714" ry="39.503" height="260" width="81.429" y="640.93" x="420"/>
    </g>
    <ellipse id="path4271" rx="16.607" ry="15.714" cy="343.43" cx="301.96" fill="#fff"/>
    <ellipse id="ellipse4273" rx="16.607" ry="15.714" cy="342.72" cx="476.25" fill="#fff"/>
   </g>
  </g>
  <g id="g4706" transform="matrix(.28489 0 0 .28489 -1.3403 674.73)">
   <g id="g4708" transform="translate(-18.183 -145.46)">
    <g id="g4710" fill="#a4ca39">
     <path id="path4712" d="m197.14 443.79 382.86 0.72l0.71429 282.14c0.0743 29.333-27.779 40.908-42.857 40.714h-301.43c-25.662-3.3746-40.054-21.809-40-42.857z" fill-rule="evenodd"/>
     <path id="path4714" d="m196.81 428.21 383.86 2.612c-0.86282-54.915-19.919-111.09-96.751-155.81 16.686-32.127 26.825-46.769 27.93-55.547 0.87248-6.9313-2.5517-7.9793-8.3316-2.8871-7.8995 6.9597-14.485 26.103-31.944 55.944-56.252-33.195-141.63-16.347-165.67-2.7346-15.737-26.271-20.917-42.607-27.8-50.596-9.0764-10.534-14.749-7.0791-11.784 2.024 4.0609 12.466 19.591 36.865 26.964 55.441-28.461 17.717-85.925 49.428-96.477 151.55z" fill-rule="evenodd"/>
     <rect id="rect4716" rx="40.714" ry="39.503" height="260" width="81.429" y="438.08" x="98.571"/>
     <rect id="rect4718" rx="40.714" ry="39.503" height="260" width="81.429" y="438.08" x="597.14"/>
     <rect id="rect4720" rx="40.714" ry="39.503" height="260" width="81.429" y="642.36" x="275.71"/>
     <rect id="rect4722" rx="40.714" ry="39.503" height="260" width="81.429" y="640.93" x="420"/>
    </g>
    <ellipse id="ellipse4724" rx="16.607" ry="15.714" cy="343.43" cx="301.96" fill="#fff"/>
    <ellipse id="ellipse4726" rx="16.607" ry="15.714" cy="342.72" cx="476.25" fill="#fff"/>
   </g>
  </g>
  <g id="g4802" transform="matrix(.28489 0 0 .28489 -1.3403 674.73)">
   <g id="g4804" transform="translate(-18.183 -145.46)">
    <g id="g4806" fill="#a4ca39">
     <path id="path4808" d="m197.14 443.79 382.86 0.72l0.71429 282.14c0.0743 29.333-27.779 40.908-42.857 40.714h-301.43c-25.662-3.3746-40.054-21.809-40-42.857z" fill-rule="evenodd"/>
     <path id="path4810" d="m196.81 428.21 383.86 2.612c-0.86282-54.915-19.919-111.09-96.751-155.81 16.686-32.127 26.825-46.769 27.93-55.547 0.87248-6.9313-2.5517-7.9793-8.3316-2.8871-7.8995 6.9597-14.485 26.103-31.944 55.944-56.252-33.195-141.63-16.347-165.67-2.7346-15.737-26.271-20.917-42.607-27.8-50.596-9.0764-10.534-14.749-7.0791-11.784 2.024 4.0609 12.466 19.591 36.865 26.964 55.441-28.461 17.717-85.925 49.428-96.477 151.55z" fill-rule="evenodd"/>
     <rect id="rect4812" rx="40.714" ry="39.503" height="260" width="81.429" y="438.08" x="98.571"/>
     <rect id="rect4814" rx="40.714" ry="39.503" height="260" width="81.429" y="438.08" x="597.14"/>
     <rect id="rect4816" rx="40.714" ry="39.503" height="260" width="81.429" y="642.36" x="275.71"/>
     <rect id="rect4818" rx="40.714" ry="39.503" height="260" width="81.429" y="640.93" x="420"/>
    </g>
    <ellipse id="ellipse4820" rx="16.607" ry="15.714" cy="343.43" cx="301.96" fill="#fff"/>
    <ellipse id="ellipse4822" rx="16.607" ry="15.714" cy="342.72" cx="476.25" fill="#fff"/>
   </g>
  </g>
  <g id="g4824" transform="matrix(.28489 0 0 .28489 -1.3403 674.73)">
   <g id="g4826" transform="translate(-18.183 -145.46)">
    <g id="g4828" fill="#a4ca39">
     <path id="path4830" d="m197.14 443.79 382.86 0.72l0.71429 282.14c0.0743 29.333-27.779 40.908-42.857 40.714h-301.43c-25.662-3.3746-40.054-21.809-40-42.857z" fill-rule="evenodd"/>
     <path id="path4832" d="m196.81 428.21 383.86 2.612c-0.86282-54.915-19.919-111.09-96.751-155.81 16.686-32.127 26.825-46.769 27.93-55.547 0.87248-6.9313-2.5517-7.9793-8.3316-2.8871-7.8995 6.9597-14.485 26.103-31.944 55.944-56.252-33.195-141.63-16.347-165.67-2.7346-15.737-26.271-20.917-42.607-27.8-50.596-9.0764-10.534-14.749-7.0791-11.784 2.024 4.0609 12.466 19.591 36.865 26.964 55.441-28.461 17.717-85.925 49.428-96.477 151.55z" fill-rule="evenodd"/>
     <rect id="rect4834" rx="40.714" ry="39.503" height="260" width="81.429" y="438.08" x="98.571"/>
     <rect id="rect4836" rx="40.714" ry="39.503" height="260" width="81.429" y="438.08" x="597.14"/>
     <rect id="rect4838" rx="40.714" ry="39.503" height="260" width="81.429" y="642.36" x="275.71"/>
     <rect id="rect4840" rx="40.714" ry="39.503" height="260" width="81.429" y="640.93" x="420"/>
    </g>
    <ellipse id="ellipse4842" rx="16.607" ry="15.714" cy="343.43" cx="301.96" fill="#fff"/>
    <ellipse id="ellipse4844" rx="16.607" ry="15.714" cy="342.72" cx="476.25" fill="#fff"/>
   </g>
  </g>
 </g>
 <g id="layer4" transform="translate(-21.562 -441.53)">
  <flowRoot id="flowRoot4253" font-size="40px" xml:space="preserve" style="word-spacing:0px;letter-spacing:0px" line-height="125%" font-family="sans-serif" fill="#000000"><flowRegion id="flowRegion4255"><rect id="rect4258" y="290.88" width="189.91" x="363.65" height="123.24"/></flowRegion><flowPara id="flowPara4260"/></flowRoot>
  <g id="g4374" transform="matrix(.69286 0 0 .68922 8.9435 300.69)">
   <rect id="rect3451" transform="rotate(-48.871)" fill-rule="evenodd" ry="65.372" height="228.29" width="240.42" y="474.76" x="-71.25" fill="#007980"/>
   <g id="g4368" font-family="sans-serif" fill="#000000">
    <text id="text4262" style="word-spacing:0px;letter-spacing:0px" xml:space="preserve" font-size="40px" y="345.43134" x="438.40619" line-height="125%"><tspan id="tspan4264" fill-opacity="0" y="345.43134" x="438.40619">C++</tspan></text>
    <text id="text4266" style="word-spacing:0px;letter-spacing:0px" xml:space="preserve" font-size="116.69px" y="388.20728" x="341.16586" line-height="100%"><tspan id="tspan4268" style="letter-spacing:0px" font-weight="bold" line-height="100%" y="388.20728" x="341.16586" font-family="&apos;Arial Hebrew&apos;" fill="#ffffff"> C++</tspan></text>
   </g>
  </g>
  <g id="g4728" transform="matrix(.69286 0 0 .68922 8.9435 300.69)">
   <rect id="rect4730" ry="65.372" fill-rule="evenodd" transform="rotate(-48.871)" height="228.29" width="240.42" y="474.76" x="-71.25" fill="#007980"/>
   <g id="g4732" font-family="sans-serif" fill="#000000">
    <text id="text4734" style="word-spacing:0px;letter-spacing:0px" line-height="125%" font-size="40px" y="345.43134" x="438.40619" xml:space="preserve"><tspan id="tspan4736" fill-opacity="0" y="345.43134" x="438.40619">C++</tspan></text>
    <text id="text4738" style="word-spacing:0px;letter-spacing:0px" line-height="100%" font-size="116.69px" y="388.20728" x="341.16586" xml:space="preserve"><tspan id="tspan4740" style="letter-spacing:0px" font-weight="bold" line-height="100%" y="388.20728" x="341.16586" font-family="&apos;Arial Hebrew&apos;" fill="#ffffff"> C++</tspan></text>
   </g>
  </g>
  <g id="g4846" transform="matrix(.69286 0 0 .68922 8.9435 300.69)">
   <rect id="rect4848" ry="65.372" fill-rule="evenodd" transform="rotate(-48.871)" height="228.29" width="240.42" y="474.76" x="-71.25" fill="#007980"/>
   <g id="g4850" font-family="sans-serif" fill="#000000">
    <text id="text4852" style="word-spacing:0px;letter-spacing:0px" line-height="125%" font-size="40px" y="345.43134" x="438.40619" xml:space="preserve"><tspan id="tspan4854" fill-opacity="0" y="345.43134" x="438.40619">C++</tspan></text>
    <text id="text4856" style="word-spacing:0px;letter-spacing:0px" line-height="100%" font-size="116.69px" y="388.20728" x="341.16586" xml:space="preserve"><tspan id="tspan4858" style="letter-spacing:0px" font-weight="bold" line-height="100%" y="388.20728" x="341.16586" font-family="&apos;Arial Hebrew&apos;" fill="#ffffff"> C++</tspan></text>
   </g>
  </g>
 </g>
 <g id="layer5" transform="translate(-21.562 -441.53)">
  <g id="g4410" transform="matrix(.69286 0 0 .69286 -23.18 296.04)">
   <rect id="rect4385" ry="65.372" fill-rule="evenodd" transform="rotate(.66820)" height="228.29" width="240.42" y="222.74" x="700.99" fill="#e0d02a"/>
   <g id="g4387" transform="matrix(.99975 .022305 -.022305 .99975 349.57 -21.65)" font-family="sans-serif" fill="#000000">
    <text id="text4389" style="word-spacing:0px;letter-spacing:0px" line-height="125%" font-size="40px" y="345.43134" x="438.40619" xml:space="preserve"><tspan id="tspan4391" fill-opacity="0" y="345.43134" x="438.40619">C++</tspan></text>
    <text id="text4393" style="word-spacing:0px;letter-spacing:0px" line-height="100%" font-size="116.69px" y="388.20728" x="377.53134" xml:space="preserve"><tspan id="tspan4395" style="letter-spacing:0px" font-weight="bold" line-height="100%" y="388.20728" x="377.53134" font-family="&apos;Arial Hebrew&apos;" fill="#ffffff"> JS</tspan></text>
   </g>
  </g>
  <g id="layer1-4" transform="matrix(1.5676 0 0 1.6868 -86.999 34.943)">
   <g id="g1894" transform="translate(428.42 184.26)">
    <path id="path8615" style="color:#000000" d="m99.75 67.469c-28.032 0-26.281 12.156-26.281 12.156l0.031 12.594h26.75v3.7812h-37.375s-17.938-2.0343-17.938 26.25c-0.000002 28.284 15.656 27.281 15.656 27.281h9.3438v-13.125s-0.50365-15.656 15.406-15.656h26.531s14.906 0.24096 14.906-14.406v-24.219c0-0.000002 2.2632-14.656-27.031-14.656zm-14.75 8.469c2.6614-0.000002 4.8125 2.1511 4.8125 4.8125 0.000002 2.6614-2.1511 4.8125-4.8125 4.8125-2.6614 0.000002-4.8125-2.1511-4.8125-4.8125-0.000002-2.6614 2.1511-4.8125 4.8125-4.8125z" fill="url(#linearGradient9521)"/>
    <path id="path8620" style="color:#000000" d="m100.55 177.31c28.032 0 26.281-12.156 26.281-12.156l-0.0312-12.594h-26.75v-3.7812h37.375s17.938 2.0343 17.938-26.25c0.00001-28.284-15.656-27.281-15.656-27.281h-9.3438v13.125s0.50366 15.656-15.406 15.656h-26.531s-14.906-0.24096-14.906 14.406v24.219s-2.2632 14.656 27.031 14.656zm14.75-8.4688c-2.6614 0-4.8125-2.1511-4.8125-4.8125s2.1511-4.8125 4.8125-4.8125 4.8125 2.1511 4.8125 4.8125c0.00001 2.6614-2.1511 4.8125-4.8125 4.8125z" fill="url(#linearGradient11307)"/>
   </g>
  </g>
  <g id="g4742" transform="matrix(.69286 0 0 .69286 -23.18 296.04)">
   <rect id="rect4744" transform="rotate(.66820)" fill-rule="evenodd" ry="65.372" height="228.29" width="240.42" y="222.74" x="700.99" fill="#e0d02a"/>
   <g id="g4746" transform="matrix(.99975 .022305 -.022305 .99975 349.57 -21.65)" font-family="sans-serif" fill="#000000">
    <text id="text4748" style="word-spacing:0px;letter-spacing:0px" xml:space="preserve" font-size="40px" y="345.43134" x="438.40619" line-height="125%"><tspan id="tspan4750" fill-opacity="0" y="345.43134" x="438.40619">C++</tspan></text>
    <text id="text4752" style="word-spacing:0px;letter-spacing:0px" xml:space="preserve" font-size="116.69px" y="388.20728" x="377.53134" line-height="100%"><tspan id="tspan4754" style="letter-spacing:0px" font-weight="bold" line-height="100%" y="388.20728" x="377.53134" font-family="&apos;Arial Hebrew&apos;" fill="#ffffff"> JS</tspan></text>
   </g>
  </g>
  <g id="g4756" transform="matrix(1.5676 0 0 1.6868 -86.999 34.943)">
   <g id="g4758" transform="translate(428.42 184.26)">
    <path id="path4760" style="color:#000000" d="m99.75 67.469c-28.032 0-26.281 12.156-26.281 12.156l0.031 12.594h26.75v3.7812h-37.375s-17.938-2.0343-17.938 26.25c-0.000002 28.284 15.656 27.281 15.656 27.281h9.3438v-13.125s-0.50365-15.656 15.406-15.656h26.531s14.906 0.24096 14.906-14.406v-24.219c0-0.000002 2.2632-14.656-27.031-14.656zm-14.75 8.469c2.6614-0.000002 4.8125 2.1511 4.8125 4.8125 0.000002 2.6614-2.1511 4.8125-4.8125 4.8125-2.6614 0.000002-4.8125-2.1511-4.8125-4.8125-0.000002-2.6614 2.1511-4.8125 4.8125-4.8125z" fill="url(#linearGradient9521)"/>
    <path id="path4762" style="color:#000000" d="m100.55 177.31c28.032 0 26.281-12.156 26.281-12.156l-0.0312-12.594h-26.75v-3.7812h37.375s17.938 2.0343 17.938-26.25c0.00001-28.284-15.656-27.281-15.656-27.281h-9.3438v13.125s0.50366 15.656-15.406 15.656h-26.531s-14.906-0.24096-14.906 14.406v24.219s-2.2632 14.656 27.031 14.656zm14.75-8.4688c-2.6614 0-4.8125-2.1511-4.8125-4.8125s2.1511-4.8125 4.8125-4.8125 4.8125 2.1511 4.8125 4.8125c0.00001 2.6614-2.1511 4.8125-4.8125 4.8125z" fill="url(#linearGradient11307)"/>
   </g>
  </g>
  <g id="g4874" transform="matrix(.69286 0 0 .69286 -23.18 296.04)">
   <rect id="rect4876" transform="rotate(.66820)" fill-rule="evenodd" ry="65.372" height="228.29" width="240.42" y="222.74" x="700.99" fill="#e0d02a"/>
   <g id="g4878" transform="matrix(.99975 .022305 -.022305 .99975 349.57 -21.65)" font-family="sans-serif" fill="#000000">
    <text id="text4880" style="word-spacing:0px;letter-spacing:0px" xml:space="preserve" font-size="40px" y="345.43134" x="438.40619" line-height="125%"><tspan id="tspan4882" fill-opacity="0" y="345.43134" x="438.40619">C++</tspan></text>
    <text id="text4884" style="word-spacing:0px;letter-spacing:0px" xml:space="preserve" font-size="116.69px" y="388.20728" x="377.53134" line-height="100%"><tspan id="tspan4886" style="letter-spacing:0px" font-weight="bold" line-height="100%" y="388.20728" x="377.53134" font-family="&apos;Arial Hebrew&apos;" fill="#ffffff"> JS</tspan></text>
   </g>
  </g>
  <g id="g4888" transform="matrix(1.5676 0 0 1.6868 -86.999 34.943)">
   <g id="g4890" transform="translate(428.42 184.26)">
    <path id="path4892" style="color:#000000" d="m99.75 67.469c-28.032 0-26.281 12.156-26.281 12.156l0.031 12.594h26.75v3.7812h-37.375s-17.938-2.0343-17.938 26.25c-0.000002 28.284 15.656 27.281 15.656 27.281h9.3438v-13.125s-0.50365-15.656 15.406-15.656h26.531s14.906 0.24096 14.906-14.406v-24.219c0-0.000002 2.2632-14.656-27.031-14.656zm-14.75 8.469c2.6614-0.000002 4.8125 2.1511 4.8125 4.8125 0.000002 2.6614-2.1511 4.8125-4.8125 4.8125-2.6614 0.000002-4.8125-2.1511-4.8125-4.8125-0.000002-2.6614 2.1511-4.8125 4.8125-4.8125z" fill="url(#linearGradient9521)"/>
    <path id="path4894" style="color:#000000" d="m100.55 177.31c28.032 0 26.281-12.156 26.281-12.156l-0.0312-12.594h-26.75v-3.7812h37.375s17.938 2.0343 17.938-26.25c0.00001-28.284-15.656-27.281-15.656-27.281h-9.3438v13.125s0.50366 15.656-15.406 15.656h-26.531s-14.906-0.24096-14.906 14.406v24.219s-2.2632 14.656 27.031 14.656zm14.75-8.4688c-2.6614 0-4.8125-2.1511-4.8125-4.8125s2.1511-4.8125 4.8125-4.8125 4.8125 2.1511 4.8125 4.8125c0.00001 2.6614-2.1511 4.8125-4.8125 4.8125z" fill="url(#linearGradient11307)"/>
   </g>
  </g>
 </g>
 <g id="layer6" transform="translate(-21.562 -441.53)">
  <g id="g4616" fill-rule="evenodd" transform="matrix(.75858 0 0 .75858 257.82 148.87)">
   <path id="path4601" d="m830.85 617.92c-34.176 7.8725-18.828 14.332-8.0812 15.405 38.389 3.8336 81.534 6.1167 122.73-3.283 17.547-4.0034 14.9-9.849 14.9-9.849 2.9079-0.96931 4.841 11.109-15.657 15.152-41.881 8.2619-115.37 5.2426-120.21 4.7982-64.353-5.9069-8.2518-23.246 6.3134-22.223z" fill="#0270b6"/>
   <path id="path4603" d="m829.34 647.72c29.94 12.991 134.25 9.9837 143.95-14.647-23.622 13.583-63.976 21.189-143.95 14.647z" fill="#0474b6"/>
   <path id="path4605" d="m943.74 545.95c37.37 3.2278 15.614 34.73-6.3135 43.942 33.011-3.6281 60.084-51.207 6.3135-43.942z" fill="#0474b6"/>
   <path id="path4607" d="m881.61 540.14c-83.786-57.798 38.388-68.047 28.032-127.53 25.754 62.655-83.587 59.515-28.032 127.53z" fill="#ff0f0f"/>
   <path id="path4609" d="m895 550.24c22.978-21.073-54.697-53.288 41.164-88.641-85.934 48.428 11.233 52.118-41.164 88.641z" fill="#ff0f0f"/>
   <path id="path4580" d="m934.9 554.03c-26.511 5.5516-151.81 16.771-81.822-8.5863-24.335 2.6492-98.77 28.867 70.206 16.162z" fill="#0474b6"/>
   <path id="path4582" d="m916.46 579.28c-26.511 5.5516-83.118 7.4267-72.984-5.5558-25.345 8.4576-0.78529 28.614 82.327 12.122 0 0-11.565-8.4652-9.3439-6.566z" fill="#0270b6"/>
   <path id="path4584" d="m909.14 605.55c-26.511 3.2787-63.925 4.9013-58.336-5.5558-21.305 5.1746-13.412 28.867 69.701 12.374 0 0-13.585-8.7177-11.364-6.8185z" fill="#0270b6"/>
  </g>
  <g id="g4697" transform="translate(28.571 240)">
   <path id="path4628" d="m1212.2 316.14a96.975 93.944 0 0 1 -96.058 93.94 96.975 93.944 0 0 1 -97.874 -92.164 96.975 93.944 0 0 1 94.208 -95.682 96.975 93.944 0 0 1 99.654 90.356" fill="#0fc3ff"/>
   <g id="g4687" transform="matrix(.39647 -.0014636 .0023599 .47303 869.05 32.612)" stroke="#fff" stroke-width="20" fill="none">
    <g id="g4683">
     <ellipse id="path4675" rx="191.93" ry="75.761" cy="601" cx="616.19"/>
     <ellipse id="ellipse4679" rx="191.93" transform="rotate(51.67)" ry="75.761" cy="-110.64" cx="853.61"/>
    </g>
    <ellipse id="ellipse4681" rx="191.93" transform="rotate(126.1)" ry="75.761" cy="-851.98" cx="122.6"/>
   </g>
   <path id="path4693" d="m1125.9 312.86a12.245 14.286 0 0 1 -12.129 14.285 12.245 14.286 0 0 1 -12.358 -14.015 12.245 14.286 0 0 1 11.896 -14.55 12.245 14.286 0 0 1 12.583 13.74" fill="#fff"/>
  </g>
  <g id="g4764" fill-rule="evenodd" transform="matrix(.75858 0 0 .75858 257.82 148.87)">
   <path id="path4766" d="m830.85 617.92c-34.176 7.8725-18.828 14.332-8.0812 15.405 38.389 3.8336 81.534 6.1167 122.73-3.283 17.547-4.0034 14.9-9.849 14.9-9.849 2.9079-0.96931 4.841 11.109-15.657 15.152-41.881 8.2619-115.37 5.2426-120.21 4.7982-64.353-5.9069-8.2518-23.246 6.3134-22.223z" fill="#0270b6"/>
   <path id="path4768" d="m829.34 647.72c29.94 12.991 134.25 9.9837 143.95-14.647-23.622 13.583-63.976 21.189-143.95 14.647z" fill="#0474b6"/>
   <path id="path4770" d="m943.74 545.95c37.37 3.2278 15.614 34.73-6.3135 43.942 33.011-3.6281 60.084-51.207 6.3135-43.942z" fill="#0474b6"/>
   <path id="path4772" d="m881.61 540.14c-83.786-57.798 38.388-68.047 28.032-127.53 25.754 62.655-83.587 59.515-28.032 127.53z" fill="#ff0f0f"/>
   <path id="path4774" d="m895 550.24c22.978-21.073-54.697-53.288 41.164-88.641-85.934 48.428 11.233 52.118-41.164 88.641z" fill="#ff0f0f"/>
   <path id="path4776" d="m934.9 554.03c-26.511 5.5516-151.81 16.771-81.822-8.5863-24.335 2.6492-98.77 28.867 70.206 16.162z" fill="#0474b6"/>
   <path id="path4778" d="m916.46 579.28c-26.511 5.5516-83.118 7.4267-72.984-5.5558-25.345 8.4576-0.78529 28.614 82.327 12.122 0 0-11.565-8.4652-9.3439-6.566z" fill="#0270b6"/>
   <path id="path4780" d="m909.14 605.55c-26.511 3.2787-63.925 4.9013-58.336-5.5558-21.305 5.1746-13.412 28.867 69.701 12.374 0 0-13.585-8.7177-11.364-6.8185z" fill="#0270b6"/>
  </g>
  <g id="g4782" transform="translate(28.571 240)">
   <path id="path4784" fill="#0fc3ff" d="m1212.2 316.14a96.975 93.944 0 0 1 -96.058 93.94 96.975 93.944 0 0 1 -97.874 -92.164 96.975 93.944 0 0 1 94.208 -95.682 96.975 93.944 0 0 1 99.654 90.356"/>
   <g id="g4786" transform="matrix(.39647 -.0014636 .0023599 .47303 869.05 32.612)" stroke="#fff" stroke-width="20" fill="none">
    <g id="g4788">
     <ellipse id="ellipse4790" rx="191.93" ry="75.761" cy="601" cx="616.19"/>
     <ellipse id="ellipse4792" rx="191.93" ry="75.761" transform="rotate(51.67)" cy="-110.64" cx="853.61"/>
    </g>
    <ellipse id="ellipse4794" rx="191.93" ry="75.761" transform="rotate(126.1)" cy="-851.98" cx="122.6"/>
   </g>
   <path id="path4796" fill="#fff" d="m1125.9 312.86a12.245 14.286 0 0 1 -12.129 14.285 12.245 14.286 0 0 1 -12.358 -14.015 12.245 14.286 0 0 1 11.896 -14.55 12.245 14.286 0 0 1 12.583 13.74"/>
  </g>
  <g id="g4918" fill-rule="evenodd" transform="matrix(.75858 0 0 .75858 257.82 148.87)">
   <path id="path4920" d="m830.85 617.92c-34.176 7.8725-18.828 14.332-8.0812 15.405 38.389 3.8336 81.534 6.1167 122.73-3.283 17.547-4.0034 14.9-9.849 14.9-9.849 2.9079-0.96931 4.841 11.109-15.657 15.152-41.881 8.2619-115.37 5.2426-120.21 4.7982-64.353-5.9069-8.2518-23.246 6.3134-22.223z" fill="#0270b6"/>
   <path id="path4922" d="m829.34 647.72c29.94 12.991 134.25 9.9837 143.95-14.647-23.622 13.583-63.976 21.189-143.95 14.647z" fill="#0474b6"/>
   <path id="path4924" d="m943.74 545.95c37.37 3.2278 15.614 34.73-6.3135 43.942 33.011-3.6281 60.084-51.207 6.3135-43.942z" fill="#0474b6"/>
   <path id="path4926" d="m881.61 540.14c-83.786-57.798 38.388-68.047 28.032-127.53 25.754 62.655-83.587 59.515-28.032 127.53z" fill="#ff0f0f"/>
   <path id="path4928" d="m895 550.24c22.978-21.073-54.697-53.288 41.164-88.641-85.934 48.428 11.233 52.118-41.164 88.641z" fill="#ff0f0f"/>
   <path id="path4930" d="m934.9 554.03c-26.511 5.5516-151.81 16.771-81.822-8.5863-24.335 2.6492-98.77 28.867 70.206 16.162z" fill="#0474b6"/>
   <path id="path4932" d="m916.46 579.28c-26.511 5.5516-83.118 7.4267-72.984-5.5558-25.345 8.4576-0.78529 28.614 82.327 12.122 0 0-11.565-8.4652-9.3439-6.566z" fill="#0270b6"/>
   <path id="path4934" d="m909.14 605.55c-26.511 3.2787-63.925 4.9013-58.336-5.5558-21.305 5.1746-13.412 28.867 69.701 12.374 0 0-13.585-8.7177-11.364-6.8185z" fill="#0270b6"/>
  </g>
  <g id="g4936" transform="translate(28.571 240)">
   <path id="path4938" fill="#0fc3ff" d="m1212.2 316.14a96.975 93.944 0 0 1 -96.058 93.94 96.975 93.944 0 0 1 -97.874 -92.164 96.975 93.944 0 0 1 94.208 -95.682 96.975 93.944 0 0 1 99.654 90.356"/>
   <g id="g4940" transform="matrix(.39647 -.0014636 .0023599 .47303 869.05 32.612)" stroke="#fff" stroke-width="20" fill="none">
    <g id="g4942">
     <ellipse id="ellipse4944" rx="191.93" ry="75.761" cy="601" cx="616.19"/>
     <ellipse id="ellipse4946" rx="191.93" ry="75.761" transform="rotate(51.67)" cy="-110.64" cx="853.61"/>
    </g>
    <ellipse id="ellipse4948" rx="191.93" ry="75.761" transform="rotate(126.1)" cy="-851.98" cx="122.6"/>
   </g>
   <path id="path4950" fill="#fff" d="m1125.9 312.86a12.245 14.286 0 0 1 -12.129 14.285 12.245 14.286 0 0 1 -12.358 -14.015 12.245 14.286 0 0 1 11.896 -14.55 12.245 14.286 0 0 1 12.583 13.74"/>
  </g>
  <g id="g4952" fill-rule="evenodd" transform="matrix(.75858 0 0 .75858 257.82 148.87)">
   <path id="path4954" d="m830.85 617.92c-34.176 7.8725-18.828 14.332-8.0812 15.405 38.389 3.8336 81.534 6.1167 122.73-3.283 17.547-4.0034 14.9-9.849 14.9-9.849 2.9079-0.96931 4.841 11.109-15.657 15.152-41.881 8.2619-115.37 5.2426-120.21 4.7982-64.353-5.9069-8.2518-23.246 6.3134-22.223z" fill="#0270b6"/>
   <path id="path4956" d="m829.34 647.72c29.94 12.991 134.25 9.9837 143.95-14.647-23.622 13.583-63.976 21.189-143.95 14.647z" fill="#0474b6"/>
   <path id="path4958" d="m943.74 545.95c37.37 3.2278 15.614 34.73-6.3135 43.942 33.011-3.6281 60.084-51.207 6.3135-43.942z" fill="#0474b6"/>
   <path id="path4960" d="m881.61 540.14c-83.786-57.798 38.388-68.047 28.032-127.53 25.754 62.655-83.587 59.515-28.032 127.53z" fill="#ff0f0f"/>
   <path id="path4962" d="m895 550.24c22.978-21.073-54.697-53.288 41.164-88.641-85.934 48.428 11.233 52.118-41.164 88.641z" fill="#ff0f0f"/>
   <path id="path4964" d="m934.9 554.03c-26.511 5.5516-151.81 16.771-81.822-8.5863-24.335 2.6492-98.77 28.867 70.206 16.162z" fill="#0474b6"/>
   <path id="path4966" d="m916.46 579.28c-26.511 5.5516-83.118 7.4267-72.984-5.5558-25.345 8.4576-0.78529 28.614 82.327 12.122 0 0-11.565-8.4652-9.3439-6.566z" fill="#0270b6"/>
   <path id="path4968" d="m909.14 605.55c-26.511 3.2787-63.925 4.9013-58.336-5.5558-21.305 5.1746-13.412 28.867 69.701 12.374 0 0-13.585-8.7177-11.364-6.8185z" fill="#0270b6"/>
  </g>
  <g id="g4970" transform="translate(28.571 240)">
   <path id="path4972" d="m1212.2 316.14a96.975 93.944 0 0 1 -96.058 93.94 96.975 93.944 0 0 1 -97.874 -92.164 96.975 93.944 0 0 1 94.208 -95.682 96.975 93.944 0 0 1 99.654 90.356" fill="#0fc3ff"/>
   <g id="g4974" transform="matrix(.39647 -.0014636 .0023599 .47303 869.05 32.612)" stroke="#fff" stroke-width="20" fill="none">
    <g id="g4976">
     <ellipse id="ellipse4978" rx="191.93" ry="75.761" cy="601" cx="616.19"/>
     <ellipse id="ellipse4980" rx="191.93" transform="rotate(51.67)" ry="75.761" cy="-110.64" cx="853.61"/>
    </g>
    <ellipse id="ellipse4982" rx="191.93" transform="rotate(126.1)" ry="75.761" cy="-851.98" cx="122.6"/>
   </g>
   <path id="path4984" d="m1125.9 312.86a12.245 14.286 0 0 1 -12.129 14.285 12.245 14.286 0 0 1 -12.358 -14.015 12.245 14.286 0 0 1 11.896 -14.55 12.245 14.286 0 0 1 12.583 13.74" fill="#fff"/>
  </g>
 </g>
</svg>
