<?xml version="1.0" encoding="UTF-8" standalone="no"?>
<svg
   xmlns:dc="http://purl.org/dc/elements/1.1/"
   xmlns:cc="http://creativecommons.org/ns#"
   xmlns:rdf="http://www.w3.org/1999/02/22-rdf-syntax-ns#"
   xmlns:svg="http://www.w3.org/2000/svg"
   xmlns="http://www.w3.org/2000/svg"
   version="1.1"
   id="svg2"
   viewBox="0 0 744.09448819 1052.3622047"
   height="297mm"
   width="210mm">
  <defs
     id="defs4" />
  <metadata
     id="metadata7">
    <rdf:RDF>
      <cc:Work
         rdf:about="">
        <dc:format>image/svg+xml</dc:format>
        <dc:type
           rdf:resource="http://purl.org/dc/dcmitype/StillImage" />
        <dc:title></dc:title>
      </cc:Work>
    </rdf:RDF>
  </metadata>
  <g
     style="opacity:1"
     id="layer2">
    <g
       transform="translate(-18.182746,-145.46197)"
       id="g4275">
      <g
         id="g4263">
        <path
           id="path4223"
           d="M 197.14286,443.79078 580,444.50506 l 0.71429,282.14286 c 0.0743,29.33253 -27.77865,40.90788 -42.85715,40.71428 l -301.42857,0 c -25.6618,-3.37456 -40.05356,-21.80892 -40,-42.85714 z"
           style="fill:#a4ca39;fill-opacity:1;fill-rule:evenodd;stroke:none;stroke-width:1px;stroke-linecap:butt;stroke-linejoin:miter;stroke-opacity:1" />
        <path
           id="path3402"
           d="m 196.80644,428.21049 383.85796,2.61204 c -0.86282,-54.91474 -19.91861,-111.08681 -96.75057,-155.80859 16.68602,-32.12692 26.82464,-46.76876 27.92955,-55.54658 0.87248,-6.93133 -2.55172,-7.97934 -8.33158,-2.88712 -7.89953,6.95971 -14.48503,26.10343 -31.94388,55.9442 -56.2525,-33.19454 -141.63403,-16.34702 -165.66501,-2.73458 -15.73717,-26.27073 -20.9168,-42.60731 -27.79967,-50.59569 -9.07642,-10.53424 -14.74922,-7.07913 -11.78393,2.02399 4.06089,12.46649 19.59107,36.86521 26.96443,55.44136 -28.46133,17.71654 -85.92478,49.42814 -96.4773,151.55097 z"
           style="fill:#a4ca39;fill-opacity:1;fill-rule:evenodd;stroke:none;stroke-width:1px;stroke-linecap:butt;stroke-linejoin:miter;stroke-opacity:1" />
        <rect
           rx="40.714283"
           ry="39.502762"
           y="438.07651"
           x="98.571426"
           height="260"
           width="81.428566"
           id="rect4229"
           style="opacity:1;fill:#a4ca39;fill-opacity:1;stroke:none" />
        <rect
           style="opacity:1;fill:#a4ca39;fill-opacity:1;stroke:none"
           id="rect4251"
           width="81.428566"
           height="260"
           x="597.14288"
           y="438.07651"
           ry="39.502762"
           rx="40.714283" />
        <rect
           rx="40.714283"
           ry="39.502762"
           y="642.36224"
           x="275.71432"
           height="260"
           width="81.428566"
           id="rect4255"
           style="opacity:1;fill:#a4ca39;fill-opacity:1;stroke:none" />
        <rect
           style="opacity:1;fill:#a4ca39;fill-opacity:1;stroke:none"
           id="rect4257"
           width="81.428566"
           height="260"
           x="420.00003"
           y="640.93365"
           ry="39.502762"
           rx="40.714283" />
      </g>
      <ellipse
         style="opacity:1;fill:#ffffff;fill-opacity:1;stroke:none"
         id="path4271"
         cx="301.96426"
         cy="343.43362"
         rx="16.607143"
         ry="15.714287" />
      <ellipse
         ry="15.714287"
         rx="16.607143"
         cy="342.71933"
         cx="476.24997"
         id="ellipse4273"
         style="opacity:1;fill:#ffffff;fill-opacity:1;stroke:none" />
    </g>
  </g>
</svg>
